<svg width="24" height="24" viewBox="0 0 24 24" fill="none" xmlns="http://www.w3.org/2000/svg">
<path d="M21.3404 11.3864C21.0221 11.0682 20.6359 10.9092 20.1811 10.9092H19.636V7.63628C19.636 5.5454 18.8862 3.75011 17.3861 2.2501C15.8862 0.750034 14.0911 0 11.9999 0C9.90879 0 8.11332 0.750034 6.61349 2.25004C5.11342 3.75011 4.36363 5.54534 4.36363 7.63628V10.9092H3.81825C3.36386 10.9092 2.97741 11.0682 2.6592 11.3864C2.34099 11.7044 2.18195 12.0908 2.18195 12.5456V22.3637C2.18195 22.8181 2.34105 23.2047 2.6592 23.5229C2.97741 23.8408 3.36386 24 3.81825 24H20.1816C20.6363 24 21.0225 23.841 21.3408 23.5229C21.6587 23.2047 21.818 22.8181 21.818 22.3637V12.5454C21.8183 12.091 21.6587 11.7046 21.3404 11.3864ZM16.3634 10.9092H7.63636V7.63628C7.63636 6.43179 8.06257 5.40331 8.91481 4.55119C9.76718 3.69894 10.7955 3.27291 12.0001 3.27291C13.2048 3.27291 14.2329 3.69888 15.0853 4.55119C15.9373 5.40325 16.3634 6.43179 16.3634 7.63628V10.9092Z" fill="#454545"/>
</svg>
